<mxfile host="app.diagrams.net" modified="2023-04-13T03:07:54.860Z" agent="Mozilla/5.0 (Macintosh; Intel Mac OS X 10_15_7) AppleWebKit/537.36 (KHTML, like Gecko) Chrome/112.0.0.0 Safari/537.36" etag="xun85S7F01MllTLQMQEM" version="21.1.1" type="github">
  <diagram id="C5RBs43oDa-KdzZeNtuy" name="Page-1">
    <mxGraphModel dx="1430" dy="1914" grid="1" gridSize="10" guides="1" tooltips="1" connect="1" arrows="1" fold="1" page="1" pageScale="1" pageWidth="827" pageHeight="1169" math="0" shadow="0">
      <root>
        <mxCell id="WIyWlLk6GJQsqaUBKTNV-0" />
        <mxCell id="WIyWlLk6GJQsqaUBKTNV-1" parent="WIyWlLk6GJQsqaUBKTNV-0" />
        <mxCell id="omgZTGUD7x8H1EXxCuzB-2" style="edgeStyle=orthogonalEdgeStyle;rounded=0;orthogonalLoop=1;jettySize=auto;html=1;entryX=0.5;entryY=0;entryDx=0;entryDy=0;" edge="1" parent="WIyWlLk6GJQsqaUBKTNV-1" target="omgZTGUD7x8H1EXxCuzB-1">
          <mxGeometry relative="1" as="geometry">
            <mxPoint x="400" y="-990" as="sourcePoint" />
          </mxGeometry>
        </mxCell>
        <mxCell id="omgZTGUD7x8H1EXxCuzB-4" style="edgeStyle=orthogonalEdgeStyle;rounded=0;orthogonalLoop=1;jettySize=auto;html=1;entryX=0;entryY=0.5;entryDx=0;entryDy=0;" edge="1" parent="WIyWlLk6GJQsqaUBKTNV-1" source="omgZTGUD7x8H1EXxCuzB-1" target="omgZTGUD7x8H1EXxCuzB-3">
          <mxGeometry relative="1" as="geometry">
            <Array as="points">
              <mxPoint x="470" y="-900" />
              <mxPoint x="470" y="-900" />
            </Array>
          </mxGeometry>
        </mxCell>
        <mxCell id="omgZTGUD7x8H1EXxCuzB-6" value="No" style="edgeLabel;html=1;align=center;verticalAlign=middle;resizable=0;points=[];" vertex="1" connectable="0" parent="omgZTGUD7x8H1EXxCuzB-4">
          <mxGeometry x="0.1467" y="1" relative="1" as="geometry">
            <mxPoint as="offset" />
          </mxGeometry>
        </mxCell>
        <mxCell id="omgZTGUD7x8H1EXxCuzB-8" style="edgeStyle=orthogonalEdgeStyle;rounded=0;orthogonalLoop=1;jettySize=auto;html=1;" edge="1" parent="WIyWlLk6GJQsqaUBKTNV-1" source="omgZTGUD7x8H1EXxCuzB-1">
          <mxGeometry relative="1" as="geometry">
            <mxPoint x="400" y="-810" as="targetPoint" />
          </mxGeometry>
        </mxCell>
        <mxCell id="omgZTGUD7x8H1EXxCuzB-1" value="http 200" style="rhombus;whiteSpace=wrap;html=1;" vertex="1" parent="WIyWlLk6GJQsqaUBKTNV-1">
          <mxGeometry x="360" y="-940" width="80" height="80" as="geometry" />
        </mxCell>
        <mxCell id="omgZTGUD7x8H1EXxCuzB-5" style="edgeStyle=orthogonalEdgeStyle;rounded=0;orthogonalLoop=1;jettySize=auto;html=1;entryX=1;entryY=0.5;entryDx=0;entryDy=0;" edge="1" parent="WIyWlLk6GJQsqaUBKTNV-1" source="omgZTGUD7x8H1EXxCuzB-3">
          <mxGeometry relative="1" as="geometry">
            <mxPoint x="460" y="-1015" as="targetPoint" />
            <Array as="points">
              <mxPoint x="530" y="-1015" />
            </Array>
          </mxGeometry>
        </mxCell>
        <mxCell id="omgZTGUD7x8H1EXxCuzB-3" value="Error message" style="shape=document;whiteSpace=wrap;html=1;boundedLbl=1;" vertex="1" parent="WIyWlLk6GJQsqaUBKTNV-1">
          <mxGeometry x="500" y="-930" width="100" height="60" as="geometry" />
        </mxCell>
        <mxCell id="omgZTGUD7x8H1EXxCuzB-19" value="" style="edgeStyle=orthogonalEdgeStyle;rounded=0;orthogonalLoop=1;jettySize=auto;html=1;" edge="1" parent="WIyWlLk6GJQsqaUBKTNV-1" target="omgZTGUD7x8H1EXxCuzB-1">
          <mxGeometry relative="1" as="geometry">
            <mxPoint x="400" y="-810" as="sourcePoint" />
          </mxGeometry>
        </mxCell>
        <mxCell id="omgZTGUD7x8H1EXxCuzB-21" value="Yes" style="edgeLabel;html=1;align=center;verticalAlign=middle;resizable=0;points=[];" vertex="1" connectable="0" parent="omgZTGUD7x8H1EXxCuzB-19">
          <mxGeometry relative="1" as="geometry">
            <mxPoint as="offset" />
          </mxGeometry>
        </mxCell>
        <mxCell id="omgZTGUD7x8H1EXxCuzB-15" value="No" style="edgeStyle=orthogonalEdgeStyle;rounded=0;orthogonalLoop=1;jettySize=auto;html=1;" edge="1" parent="WIyWlLk6GJQsqaUBKTNV-1" source="omgZTGUD7x8H1EXxCuzB-12" target="omgZTGUD7x8H1EXxCuzB-14">
          <mxGeometry relative="1" as="geometry">
            <Array as="points">
              <mxPoint x="470" y="-558" />
              <mxPoint x="470" y="-558" />
            </Array>
          </mxGeometry>
        </mxCell>
        <mxCell id="omgZTGUD7x8H1EXxCuzB-30" style="edgeStyle=orthogonalEdgeStyle;rounded=0;orthogonalLoop=1;jettySize=auto;html=1;" edge="1" parent="WIyWlLk6GJQsqaUBKTNV-1" source="omgZTGUD7x8H1EXxCuzB-12" target="omgZTGUD7x8H1EXxCuzB-28">
          <mxGeometry relative="1" as="geometry" />
        </mxCell>
        <mxCell id="omgZTGUD7x8H1EXxCuzB-31" value="Yes" style="edgeLabel;html=1;align=center;verticalAlign=middle;resizable=0;points=[];" vertex="1" connectable="0" parent="omgZTGUD7x8H1EXxCuzB-30">
          <mxGeometry x="-0.1667" y="2" relative="1" as="geometry">
            <mxPoint as="offset" />
          </mxGeometry>
        </mxCell>
        <mxCell id="omgZTGUD7x8H1EXxCuzB-12" value="http 200" style="rhombus;whiteSpace=wrap;html=1;" vertex="1" parent="WIyWlLk6GJQsqaUBKTNV-1">
          <mxGeometry x="360" y="-598" width="80" height="80" as="geometry" />
        </mxCell>
        <mxCell id="omgZTGUD7x8H1EXxCuzB-16" style="edgeStyle=orthogonalEdgeStyle;rounded=0;orthogonalLoop=1;jettySize=auto;html=1;entryX=1;entryY=0.5;entryDx=0;entryDy=0;" edge="1" parent="WIyWlLk6GJQsqaUBKTNV-1" source="omgZTGUD7x8H1EXxCuzB-14" target="omgZTGUD7x8H1EXxCuzB-42">
          <mxGeometry relative="1" as="geometry">
            <mxPoint x="460" y="-658" as="targetPoint" />
            <Array as="points">
              <mxPoint x="560" y="-660" />
            </Array>
          </mxGeometry>
        </mxCell>
        <mxCell id="omgZTGUD7x8H1EXxCuzB-14" value="Error message" style="shape=document;whiteSpace=wrap;html=1;boundedLbl=1;" vertex="1" parent="WIyWlLk6GJQsqaUBKTNV-1">
          <mxGeometry x="520" y="-588" width="100" height="60" as="geometry" />
        </mxCell>
        <mxCell id="omgZTGUD7x8H1EXxCuzB-43" style="edgeStyle=orthogonalEdgeStyle;rounded=0;orthogonalLoop=1;jettySize=auto;html=1;entryX=0.5;entryY=0;entryDx=0;entryDy=0;" edge="1" parent="WIyWlLk6GJQsqaUBKTNV-1" source="omgZTGUD7x8H1EXxCuzB-26" target="omgZTGUD7x8H1EXxCuzB-42">
          <mxGeometry relative="1" as="geometry" />
        </mxCell>
        <mxCell id="omgZTGUD7x8H1EXxCuzB-26" value="Response&lt;br&gt;Service list" style="shape=document;whiteSpace=wrap;html=1;boundedLbl=1;" vertex="1" parent="WIyWlLk6GJQsqaUBKTNV-1">
          <mxGeometry x="340" y="-810" width="120" height="80" as="geometry" />
        </mxCell>
        <mxCell id="omgZTGUD7x8H1EXxCuzB-40" style="edgeStyle=orthogonalEdgeStyle;rounded=0;orthogonalLoop=1;jettySize=auto;html=1;" edge="1" parent="WIyWlLk6GJQsqaUBKTNV-1" source="omgZTGUD7x8H1EXxCuzB-28" target="omgZTGUD7x8H1EXxCuzB-38">
          <mxGeometry relative="1" as="geometry" />
        </mxCell>
        <mxCell id="omgZTGUD7x8H1EXxCuzB-28" value="Response&lt;br style=&quot;border-color: var(--border-color);&quot;&gt;Operators List group with products" style="shape=document;whiteSpace=wrap;html=1;boundedLbl=1;" vertex="1" parent="WIyWlLk6GJQsqaUBKTNV-1">
          <mxGeometry x="340" y="-470" width="120" height="80" as="geometry" />
        </mxCell>
        <mxCell id="omgZTGUD7x8H1EXxCuzB-48" style="edgeStyle=orthogonalEdgeStyle;rounded=0;orthogonalLoop=1;jettySize=auto;html=1;entryX=0.5;entryY=0;entryDx=0;entryDy=0;" edge="1" parent="WIyWlLk6GJQsqaUBKTNV-1" source="omgZTGUD7x8H1EXxCuzB-32" target="omgZTGUD7x8H1EXxCuzB-46">
          <mxGeometry relative="1" as="geometry" />
        </mxCell>
        <mxCell id="omgZTGUD7x8H1EXxCuzB-32" value="Load Products" style="shape=document;whiteSpace=wrap;html=1;boundedLbl=1;" vertex="1" parent="WIyWlLk6GJQsqaUBKTNV-1">
          <mxGeometry x="340" y="-240" width="120" height="80" as="geometry" />
        </mxCell>
        <mxCell id="omgZTGUD7x8H1EXxCuzB-41" style="edgeStyle=orthogonalEdgeStyle;rounded=0;orthogonalLoop=1;jettySize=auto;html=1;" edge="1" parent="WIyWlLk6GJQsqaUBKTNV-1" source="omgZTGUD7x8H1EXxCuzB-38" target="omgZTGUD7x8H1EXxCuzB-32">
          <mxGeometry relative="1" as="geometry" />
        </mxCell>
        <mxCell id="omgZTGUD7x8H1EXxCuzB-38" value="Select Operator" style="shape=parallelogram;perimeter=parallelogramPerimeter;whiteSpace=wrap;html=1;fixedSize=1;" vertex="1" parent="WIyWlLk6GJQsqaUBKTNV-1">
          <mxGeometry x="340" y="-350" width="120" height="60" as="geometry" />
        </mxCell>
        <mxCell id="omgZTGUD7x8H1EXxCuzB-45" style="edgeStyle=orthogonalEdgeStyle;rounded=0;orthogonalLoop=1;jettySize=auto;html=1;entryX=0.5;entryY=0;entryDx=0;entryDy=0;" edge="1" parent="WIyWlLk6GJQsqaUBKTNV-1" source="omgZTGUD7x8H1EXxCuzB-42" target="omgZTGUD7x8H1EXxCuzB-12">
          <mxGeometry relative="1" as="geometry" />
        </mxCell>
        <mxCell id="omgZTGUD7x8H1EXxCuzB-42" value="Select Service" style="shape=parallelogram;perimeter=parallelogramPerimeter;whiteSpace=wrap;html=1;fixedSize=1;" vertex="1" parent="WIyWlLk6GJQsqaUBKTNV-1">
          <mxGeometry x="340" y="-690" width="120" height="60" as="geometry" />
        </mxCell>
        <mxCell id="omgZTGUD7x8H1EXxCuzB-49" style="edgeStyle=orthogonalEdgeStyle;rounded=0;orthogonalLoop=1;jettySize=auto;html=1;entryX=0.5;entryY=0;entryDx=0;entryDy=0;" edge="1" parent="WIyWlLk6GJQsqaUBKTNV-1" source="omgZTGUD7x8H1EXxCuzB-46" target="omgZTGUD7x8H1EXxCuzB-47">
          <mxGeometry relative="1" as="geometry" />
        </mxCell>
        <mxCell id="omgZTGUD7x8H1EXxCuzB-46" value="Insert data&lt;br&gt;Select Product" style="shape=parallelogram;perimeter=parallelogramPerimeter;whiteSpace=wrap;html=1;fixedSize=1;" vertex="1" parent="WIyWlLk6GJQsqaUBKTNV-1">
          <mxGeometry x="340" y="-120" width="120" height="60" as="geometry" />
        </mxCell>
        <mxCell id="omgZTGUD7x8H1EXxCuzB-51" style="edgeStyle=orthogonalEdgeStyle;rounded=0;orthogonalLoop=1;jettySize=auto;html=1;entryX=0;entryY=0.5;entryDx=0;entryDy=0;" edge="1" parent="WIyWlLk6GJQsqaUBKTNV-1" source="omgZTGUD7x8H1EXxCuzB-47" target="omgZTGUD7x8H1EXxCuzB-50">
          <mxGeometry relative="1" as="geometry" />
        </mxCell>
        <mxCell id="omgZTGUD7x8H1EXxCuzB-53" value="Yes" style="edgeLabel;html=1;align=center;verticalAlign=middle;resizable=0;points=[];" vertex="1" connectable="0" parent="omgZTGUD7x8H1EXxCuzB-51">
          <mxGeometry x="-0.2" y="-2" relative="1" as="geometry">
            <mxPoint as="offset" />
          </mxGeometry>
        </mxCell>
        <mxCell id="omgZTGUD7x8H1EXxCuzB-55" value="No" style="edgeStyle=orthogonalEdgeStyle;rounded=0;orthogonalLoop=1;jettySize=auto;html=1;entryX=0.5;entryY=0;entryDx=0;entryDy=0;" edge="1" parent="WIyWlLk6GJQsqaUBKTNV-1" source="omgZTGUD7x8H1EXxCuzB-47" target="omgZTGUD7x8H1EXxCuzB-54">
          <mxGeometry relative="1" as="geometry" />
        </mxCell>
        <mxCell id="omgZTGUD7x8H1EXxCuzB-47" value="Empty Data?" style="rhombus;whiteSpace=wrap;html=1;" vertex="1" parent="WIyWlLk6GJQsqaUBKTNV-1">
          <mxGeometry x="360" y="-20" width="80" height="80" as="geometry" />
        </mxCell>
        <mxCell id="omgZTGUD7x8H1EXxCuzB-52" style="edgeStyle=orthogonalEdgeStyle;rounded=0;orthogonalLoop=1;jettySize=auto;html=1;" edge="1" parent="WIyWlLk6GJQsqaUBKTNV-1" source="omgZTGUD7x8H1EXxCuzB-50" target="omgZTGUD7x8H1EXxCuzB-46">
          <mxGeometry relative="1" as="geometry">
            <Array as="points">
              <mxPoint x="560" y="-90" />
            </Array>
          </mxGeometry>
        </mxCell>
        <mxCell id="omgZTGUD7x8H1EXxCuzB-50" value="Error message" style="shape=document;whiteSpace=wrap;html=1;boundedLbl=1;" vertex="1" parent="WIyWlLk6GJQsqaUBKTNV-1">
          <mxGeometry x="500" y="-60" width="120" height="80" as="geometry" />
        </mxCell>
        <mxCell id="omgZTGUD7x8H1EXxCuzB-57" style="edgeStyle=orthogonalEdgeStyle;rounded=0;orthogonalLoop=1;jettySize=auto;html=1;entryX=0.5;entryY=0;entryDx=0;entryDy=0;" edge="1" parent="WIyWlLk6GJQsqaUBKTNV-1" source="omgZTGUD7x8H1EXxCuzB-54" target="omgZTGUD7x8H1EXxCuzB-56">
          <mxGeometry relative="1" as="geometry" />
        </mxCell>
        <mxCell id="omgZTGUD7x8H1EXxCuzB-54" value="Create Array Object with products" style="rounded=0;whiteSpace=wrap;html=1;" vertex="1" parent="WIyWlLk6GJQsqaUBKTNV-1">
          <mxGeometry x="340" y="100" width="120" height="60" as="geometry" />
        </mxCell>
        <mxCell id="omgZTGUD7x8H1EXxCuzB-59" style="edgeStyle=orthogonalEdgeStyle;rounded=0;orthogonalLoop=1;jettySize=auto;html=1;entryX=0.5;entryY=0;entryDx=0;entryDy=0;" edge="1" parent="WIyWlLk6GJQsqaUBKTNV-1" source="omgZTGUD7x8H1EXxCuzB-56" target="omgZTGUD7x8H1EXxCuzB-58">
          <mxGeometry relative="1" as="geometry" />
        </mxCell>
        <mxCell id="omgZTGUD7x8H1EXxCuzB-56" value="Select payment Method" style="shape=parallelogram;perimeter=parallelogramPerimeter;whiteSpace=wrap;html=1;fixedSize=1;" vertex="1" parent="WIyWlLk6GJQsqaUBKTNV-1">
          <mxGeometry x="340" y="210" width="120" height="60" as="geometry" />
        </mxCell>
        <mxCell id="omgZTGUD7x8H1EXxCuzB-61" style="edgeStyle=orthogonalEdgeStyle;rounded=0;orthogonalLoop=1;jettySize=auto;html=1;" edge="1" parent="WIyWlLk6GJQsqaUBKTNV-1" source="omgZTGUD7x8H1EXxCuzB-58" target="omgZTGUD7x8H1EXxCuzB-60">
          <mxGeometry relative="1" as="geometry" />
        </mxCell>
        <mxCell id="omgZTGUD7x8H1EXxCuzB-62" value="Yes" style="edgeLabel;html=1;align=center;verticalAlign=middle;resizable=0;points=[];" vertex="1" connectable="0" parent="omgZTGUD7x8H1EXxCuzB-61">
          <mxGeometry x="-0.275" relative="1" as="geometry">
            <mxPoint as="offset" />
          </mxGeometry>
        </mxCell>
        <mxCell id="omgZTGUD7x8H1EXxCuzB-65" value="No" style="edgeStyle=orthogonalEdgeStyle;rounded=0;orthogonalLoop=1;jettySize=auto;html=1;entryX=0.5;entryY=0;entryDx=0;entryDy=0;" edge="1" parent="WIyWlLk6GJQsqaUBKTNV-1" source="omgZTGUD7x8H1EXxCuzB-58" target="omgZTGUD7x8H1EXxCuzB-63">
          <mxGeometry relative="1" as="geometry" />
        </mxCell>
        <mxCell id="omgZTGUD7x8H1EXxCuzB-58" value="Payment need data?" style="rhombus;whiteSpace=wrap;html=1;" vertex="1" parent="WIyWlLk6GJQsqaUBKTNV-1">
          <mxGeometry x="350" y="320" width="100" height="100" as="geometry" />
        </mxCell>
        <mxCell id="omgZTGUD7x8H1EXxCuzB-66" style="edgeStyle=orthogonalEdgeStyle;rounded=0;orthogonalLoop=1;jettySize=auto;html=1;entryX=1;entryY=0.5;entryDx=0;entryDy=0;" edge="1" parent="WIyWlLk6GJQsqaUBKTNV-1" source="omgZTGUD7x8H1EXxCuzB-60" target="omgZTGUD7x8H1EXxCuzB-63">
          <mxGeometry relative="1" as="geometry">
            <Array as="points">
              <mxPoint x="570" y="520" />
            </Array>
          </mxGeometry>
        </mxCell>
        <mxCell id="omgZTGUD7x8H1EXxCuzB-60" value="Ask payment data" style="shape=parallelogram;perimeter=parallelogramPerimeter;whiteSpace=wrap;html=1;fixedSize=1;" vertex="1" parent="WIyWlLk6GJQsqaUBKTNV-1">
          <mxGeometry x="520" y="340" width="120" height="60" as="geometry" />
        </mxCell>
        <mxCell id="omgZTGUD7x8H1EXxCuzB-79" style="edgeStyle=orthogonalEdgeStyle;rounded=0;orthogonalLoop=1;jettySize=auto;html=1;entryX=0.5;entryY=0;entryDx=0;entryDy=0;" edge="1" parent="WIyWlLk6GJQsqaUBKTNV-1" source="omgZTGUD7x8H1EXxCuzB-63" target="omgZTGUD7x8H1EXxCuzB-67">
          <mxGeometry relative="1" as="geometry" />
        </mxCell>
        <mxCell id="omgZTGUD7x8H1EXxCuzB-63" value="Send all Data for create transaction" style="rounded=0;whiteSpace=wrap;html=1;" vertex="1" parent="WIyWlLk6GJQsqaUBKTNV-1">
          <mxGeometry x="340" y="490" width="120" height="60" as="geometry" />
        </mxCell>
        <mxCell id="omgZTGUD7x8H1EXxCuzB-72" value="Yes" style="edgeStyle=orthogonalEdgeStyle;rounded=0;orthogonalLoop=1;jettySize=auto;html=1;entryX=0.5;entryY=0;entryDx=0;entryDy=0;" edge="1" parent="WIyWlLk6GJQsqaUBKTNV-1" source="omgZTGUD7x8H1EXxCuzB-67" target="omgZTGUD7x8H1EXxCuzB-69">
          <mxGeometry relative="1" as="geometry" />
        </mxCell>
        <mxCell id="omgZTGUD7x8H1EXxCuzB-80" style="edgeStyle=orthogonalEdgeStyle;rounded=0;orthogonalLoop=1;jettySize=auto;html=1;entryX=0;entryY=0.5;entryDx=0;entryDy=0;" edge="1" parent="WIyWlLk6GJQsqaUBKTNV-1" source="omgZTGUD7x8H1EXxCuzB-67" target="omgZTGUD7x8H1EXxCuzB-70">
          <mxGeometry relative="1" as="geometry" />
        </mxCell>
        <mxCell id="omgZTGUD7x8H1EXxCuzB-81" value="No" style="edgeLabel;html=1;align=center;verticalAlign=middle;resizable=0;points=[];" vertex="1" connectable="0" parent="omgZTGUD7x8H1EXxCuzB-80">
          <mxGeometry x="-0.0444" y="2" relative="1" as="geometry">
            <mxPoint as="offset" />
          </mxGeometry>
        </mxCell>
        <mxCell id="omgZTGUD7x8H1EXxCuzB-67" value="Transaction Created?" style="rhombus;whiteSpace=wrap;html=1;" vertex="1" parent="WIyWlLk6GJQsqaUBKTNV-1">
          <mxGeometry x="360" y="585" width="80" height="80" as="geometry" />
        </mxCell>
        <mxCell id="omgZTGUD7x8H1EXxCuzB-74" style="edgeStyle=orthogonalEdgeStyle;rounded=0;orthogonalLoop=1;jettySize=auto;html=1;entryX=0.5;entryY=0;entryDx=0;entryDy=0;" edge="1" parent="WIyWlLk6GJQsqaUBKTNV-1" source="omgZTGUD7x8H1EXxCuzB-69" target="omgZTGUD7x8H1EXxCuzB-73">
          <mxGeometry relative="1" as="geometry" />
        </mxCell>
        <mxCell id="omgZTGUD7x8H1EXxCuzB-69" value="Success message" style="shape=document;whiteSpace=wrap;html=1;boundedLbl=1;" vertex="1" parent="WIyWlLk6GJQsqaUBKTNV-1">
          <mxGeometry x="340" y="720" width="120" height="80" as="geometry" />
        </mxCell>
        <mxCell id="omgZTGUD7x8H1EXxCuzB-70" value="Error message" style="shape=document;whiteSpace=wrap;html=1;boundedLbl=1;" vertex="1" parent="WIyWlLk6GJQsqaUBKTNV-1">
          <mxGeometry x="530" y="585" width="120" height="80" as="geometry" />
        </mxCell>
        <mxCell id="omgZTGUD7x8H1EXxCuzB-73" value="Process End" style="rounded=1;whiteSpace=wrap;html=1;" vertex="1" parent="WIyWlLk6GJQsqaUBKTNV-1">
          <mxGeometry x="340" y="860" width="120" height="60" as="geometry" />
        </mxCell>
        <mxCell id="omgZTGUD7x8H1EXxCuzB-75" value="Get country list" style="rounded=0;whiteSpace=wrap;html=1;" vertex="1" parent="WIyWlLk6GJQsqaUBKTNV-1">
          <mxGeometry x="340" y="-1040" width="120" height="60" as="geometry" />
        </mxCell>
        <mxCell id="omgZTGUD7x8H1EXxCuzB-78" style="edgeStyle=orthogonalEdgeStyle;rounded=0;orthogonalLoop=1;jettySize=auto;html=1;entryX=0.5;entryY=0;entryDx=0;entryDy=0;" edge="1" parent="WIyWlLk6GJQsqaUBKTNV-1" source="omgZTGUD7x8H1EXxCuzB-76" target="omgZTGUD7x8H1EXxCuzB-75">
          <mxGeometry relative="1" as="geometry" />
        </mxCell>
        <mxCell id="omgZTGUD7x8H1EXxCuzB-76" value="Load Recharge Page" style="rounded=1;whiteSpace=wrap;html=1;" vertex="1" parent="WIyWlLk6GJQsqaUBKTNV-1">
          <mxGeometry x="340" y="-1150" width="120" height="60" as="geometry" />
        </mxCell>
      </root>
    </mxGraphModel>
  </diagram>
</mxfile>
